<svg xmlns="http://www.w3.org/2000/svg" viewBox="0 0 490 285.96">
  <g id="ochi">
    <g id="ochi6">
      <path d="M245,286c-79,0-304.17-70-230.35-138.22C72.65,94.17,166,0,245,0S417.35,94.17,475.35,147.74C549.17,215.93,324,286,245,286Z" style="fill: #3a3a3a"/>
    </g>
    <circle id="ochi5" cx="245" cy="142.98" r="135" style="fill: #ab2726"/>
    <circle id="ochi4" cx="244.99" cy="142.98" r="90" style="fill: #ffca31"/>
    <path id="ochi3" d="M288.69,200.21a72,72,0,0,1-92.41-4.2" style="fill: none;stroke: #fff;stroke-linecap: round;stroke-linejoin: round;stroke-width: 25.511811023622048px;opacity: 0.45"/>
    <circle id="ochi2" cx="244.99" cy="142.98" r="22.5" style="fill: #231f20"/>
    <circle id="ochi1" cx="270.83" cy="124.07" r="22.5" style="fill: #fff;opacity: 0.7"/>
  </g>
  <g id="loading">
    <path id="loading12" d="M307.73,34.32,302.2,43.9a4.47,4.47,0,0,1-6,1.71,109.29,109.29,0,0,0-43.9-12.38,4.47,4.47,0,0,1-4.19-4.58l.3-11.06a4.49,4.49,0,0,1,4.74-4.36A129.27,129.27,0,0,1,306,28.14,4.47,4.47,0,0,1,307.73,34.32Z" style="fill: #fff"/>
    <path id="loading11" d="M353.64,80.25l-9.57,5.53a4.46,4.46,0,0,1-6-1.49,110.47,110.47,0,0,0-31.82-32.7,4.47,4.47,0,0,1-1.33-6.06l5.79-9.43A4.47,4.47,0,0,1,317,34.71,130.66,130.66,0,0,1,355.21,74,4.47,4.47,0,0,1,353.64,80.25Z" style="fill: #fff"/>
    <path id="loading10" d="M370.44,143H359.38a4.48,4.48,0,0,1-4.47-4.31,109.08,109.08,0,0,0-11.18-44.22,4.48,4.48,0,0,1,1.88-5.93l9.73-5.26a4.47,4.47,0,0,1,6.13,1.92,129.43,129.43,0,0,1,13.45,53.18A4.48,4.48,0,0,1,370.44,143Z" style="fill: #fff"/>
    <path id="loading9" d="M374.74,151.16A129,129,0,0,1,359.83,204a4.47,4.47,0,0,1-6.18,1.75l-9.58-5.53a4.48,4.48,0,0,1-1.71-6,109.1,109.1,0,0,0,12.39-43.9,4.47,4.47,0,0,1,4.58-4.19l11.06.3A4.47,4.47,0,0,1,374.74,151.16Z" style="fill: #fff"/>
    <path id="loading8" d="M353.28,215A130.75,130.75,0,0,1,314,253.2a4.46,4.46,0,0,1-6.23-1.57l-5.53-9.58a4.47,4.47,0,0,1,1.49-6,110.35,110.35,0,0,0,32.7-31.82,4.47,4.47,0,0,1,6.06-1.34l9.43,5.8A4.48,4.48,0,0,1,353.28,215Z" style="fill: #fff"/>
    <path id="loading7" d="M302.8,259.45a129.27,129.27,0,0,1-53.18,13.45,4.47,4.47,0,0,1-4.62-4.48V257.36a4.46,4.46,0,0,1,4.31-4.46,109.24,109.24,0,0,0,44.22-11.18,4.47,4.47,0,0,1,5.92,1.88l5.27,9.72A4.47,4.47,0,0,1,302.8,259.45Z" style="fill: #fff"/>
    <path id="loading6" d="M241.86,257.31l-.31,11.06a4.48,4.48,0,0,1-4.73,4.36A129.23,129.23,0,0,1,184,257.82a4.46,4.46,0,0,1-1.75-6.18l5.53-9.58a4.46,4.46,0,0,1,6-1.71,109.2,109.2,0,0,0,43.9,12.38A4.48,4.48,0,0,1,241.86,257.31Z" style="fill: #fff"/>
    <path id="loading5" d="M185.1,240.44l-5.79,9.42a4.47,4.47,0,0,1-6.28,1.4A130.72,130.72,0,0,1,134.78,212a4.48,4.48,0,0,1,1.57-6.24l9.58-5.53a4.47,4.47,0,0,1,6,1.49,110.5,110.5,0,0,0,31.82,32.71A4.47,4.47,0,0,1,185.1,240.44Z" style="fill: #fff"/>
    <path id="loading4" d="M144.39,197.45l-9.74,5.26a4.47,4.47,0,0,1-6.13-1.92,129.31,129.31,0,0,1-13.44-53.19,4.47,4.47,0,0,1,4.48-4.62h11.06a4.47,4.47,0,0,1,4.46,4.31,109.49,109.49,0,0,0,11.18,44.23A4.48,4.48,0,0,1,144.39,197.45Z" style="fill: #fff"/>
    <path id="loading3" d="M147.63,91.75a109.25,109.25,0,0,0-12.38,43.9,4.48,4.48,0,0,1-4.58,4.19l-11.07-.3a4.49,4.49,0,0,1-4.35-4.74A129.27,129.27,0,0,1,130.16,82a4.47,4.47,0,0,1,6.18-1.75l9.58,5.53A4.47,4.47,0,0,1,147.63,91.75Z" style="fill: #fff"/>
    <path id="loading2" d="M186.31,49.93A110.54,110.54,0,0,0,153.6,81.76a4.47,4.47,0,0,1-6.06,1.34l-9.43-5.8A4.47,4.47,0,0,1,136.72,71,130.76,130.76,0,0,1,176,32.76a4.48,4.48,0,0,1,6.24,1.57l5.53,9.58A4.48,4.48,0,0,1,186.31,49.93Z" style="fill: #fff"/>
    <path id="loading1" d="M245,17.54V28.6a4.47,4.47,0,0,1-4.31,4.46,109.33,109.33,0,0,0-44.23,11.18,4.48,4.48,0,0,1-5.92-1.87l-5.27-9.73a4.47,4.47,0,0,1,1.92-6.13,129.32,129.32,0,0,1,53.19-13.45A4.47,4.47,0,0,1,245,17.54Z" style="fill: #fff"/>
  </g>
</svg>
